<svg xmlns="http://www.w3.org/2000/svg" xmlns:xlink="http://www.w3.org/1999/xlink" width="250" height="230" viewBox="0 0 250 230">
  <defs>
    <clipPath id="clip-HowItWorks3">
      <rect width="250" height="230"/>
    </clipPath>
  </defs>
  <g id="HowItWorks3" clip-path="url(#clip-HowItWorks3)">
    <g id="Group_13725" data-name="Group 13725" transform="translate(-1299 -1271)">
      <ellipse id="Ellipse_753" data-name="Ellipse 753" cx="113.343" cy="114" rx="113.343" ry="114" transform="translate(1299 1272)" fill="#ffe42d"/>
      <path id="Union_88" data-name="Union 88" d="M170.73,124.245c-9.025-1.025-15.405-6.332-18.458-15.336a2.737,2.737,0,0,0-3.024-2.176h-.018c-16.847.039-33.548.039-49.646,0h-.017a2.853,2.853,0,0,0-3.163,2.3,21.714,21.714,0,0,1-20.777,15.375h-.081a21.618,21.618,0,0,1-21.074-15.15c-.642-1.92-1.583-2.611-3.469-2.531-2.682.1-5.42.07-8.065.035l-1.512-.018a11.117,11.117,0,0,1-2.591-.275,4.191,4.191,0,0,1,.86-8.289c3.8-.068,7.73-.072,11.669-.008a2.567,2.567,0,0,0,2.909-2.061,22,22,0,0,1,42.187-.279c.568,1.762,1.412,2.387,3.331,2.352,6.564-.094,12.564-.09,18.346.006,2.006.029,2.9-.674,3.331-2.6,4-17.871,8.136-36.025,12.13-53.58l2.385-10.475q1.813-7.972,3.64-15.939l.78-3.393c.393-1.705.572-2.486.143-3.021s-1.266-.543-3.092-.543h-15.5q-40.024,0-80.047-.008h-.248a12.743,12.743,0,0,1-2.782-.189,4.216,4.216,0,0,1-.013-8.25A11.945,11.945,0,0,1,41.478.007Q93.211,0,144.944,0c2.517,0,4.165.533,5.039,1.633s1.028,2.822.469,5.281q-1.917,8.443-3.83,16.891c-.306,1.35-.461,2.031-.1,2.479s1.02.449,2.341.449q5.495.006,11,0h12.366c20.687.018,36.572,13.154,40.474,33.477a5.509,5.509,0,0,0,.206.73c.025.08.052.168.077.254v7.426l-5.28,27.83q-.189.979-.363,1.953c-.253,1.375-.511,2.8-.813,4.186-.642,2.957-2.135,4.271-4.562,4.025-4.649-.469-7,1.018-9.3,5.885-3.668,7.768-10.251,11.928-18.745,11.926A27.977,27.977,0,0,1,170.73,124.245Zm-10.964-21.8a13.452,13.452,0,0,0,13.465,13.344h.047a13.625,13.625,0,0,0,9.736-4.021,13.093,13.093,0,0,0,3.857-9.369A13.623,13.623,0,0,0,173.31,88.866h-.018A13.742,13.742,0,0,0,159.767,102.44Zm-93.8-9.707a13.286,13.286,0,0,0-3.925,9.453,13.137,13.137,0,0,0,13.253,13.6h.051a13.409,13.409,0,0,0,13.524-13.146,13.67,13.67,0,0,0-3.912-9.809,13.328,13.328,0,0,0-9.525-3.963h-.051A13.249,13.249,0,0,0,65.964,92.733Zm82.9,5.447a1.333,1.333,0,0,0,.15.006c1.846,0,2.716-.668,3.3-2.492a22.008,22.008,0,0,1,20.958-15.469h.039c9.818,0,17.742,5.969,21.2,15.973.362,1.049.861,2.057,2.545,1.965,1.623-.094,1.829-1.211,2.027-2.266.387-2.1.792-4.2,1.2-6.293.679-3.51,1.381-7.133,1.988-10.721.245-1.479.576-2.973.9-4.422a43.494,43.494,0,0,0,1.368-9.617C204.424,51,192.493,37.7,178.479,35.79a69.954,69.954,0,0,0-10.628-.379c-2.066.033-4.021.07-5.814-.031h-.021c-1.73,0-3.367.006-4.94.01-3.905.018-7.271.025-10.711-.047-1.7-.035-2.513.646-2.9,2.357-4.355,19.375-8.634,38.369-13.075,57.711-.251,1.08-.207,1.732.148,2.166a2.519,2.519,0,0,0,2.075.6c2.923-.039,5.668-.059,8.271-.059C143.7,98.114,146.34,98.138,148.86,98.181ZM5.343,80a5.8,5.8,0,0,1-4.3-1.486A4.152,4.152,0,0,1,.01,75.3a3.964,3.964,0,0,1,3.547-3.85,7.974,7.974,0,0,1,.973-.047h.322l.327,0,6.643,0q22.43,0,44.85,0c3.229,0,5.131,1.518,5.217,4.16a3.84,3.84,0,0,1-1.094,2.857A5.708,5.708,0,0,1,56.624,80c-6.126.025-12.349.021-18.37.018l-7.271-.006c-2.518-.008-5,0-7.5.006-2.412,0-4.858,0-7.317,0C12.563,80.022,8.933,80.017,5.343,80ZM41.563,53.276q-3.125-.006-6.245-.008h-.383l-5.51.008q-7.575,0-15.152,0c-2.573,0-4.049-.732-4.933-2.436a4.189,4.189,0,0,1,3.28-6.133,10.122,10.122,0,0,1,1.016-.033h9.337q16.986,0,33.978,0c3,.006,4.9,1.617,4.941,4.217a4,4,0,0,1-1.153,2.869,5.256,5.256,0,0,1-3.758,1.488c-3.124.029-6.278.037-9.409.037C45.554,53.284,43.546,53.28,41.563,53.276ZM22.6,26.5a5.183,5.183,0,0,1-3.733-1.482,3.993,3.993,0,0,1-1.147-2.906c.059-2.568,1.971-4.172,4.983-4.182q3.557-.006,7.11-.008,2.552,0,5.1,0H45.008c3.968,0,7.932-.01,11.9,0,3.014.01,4.925,1.613,4.989,4.182a4.021,4.021,0,0,1-1.15,2.906A5.174,5.174,0,0,1,57.007,26.5c-5.689.029-11.43.043-17.179.043S28.323,26.532,22.6,26.5Z" transform="translate(1336.014 1329.032)" fill="#272c48" stroke="rgba(0,0,0,0)" stroke-miterlimit="10" stroke-width="1"/>
    </g>
  </g>
</svg>
