<svg xmlns="http://www.w3.org/2000/svg" xmlns:xlink="http://www.w3.org/1999/xlink" width="70" height="56" viewBox="0 0 70 56">
  <defs>
    <clipPath id="clip-Icon_Hand">
      <rect width="70" height="56"/>
    </clipPath>
  </defs>
  <g id="Icon_Hand" clip-path="url(#clip-Icon_Hand)">
    <g id="Group_14446" data-name="Group 14446" transform="translate(-5.359 -8.847)">
      <path id="Union_123" data-name="Union 123" d="M33.658,46.139l-26.3-7.551.227-1.754A6.956,6.956,0,0,1,14.949,30.4l5.652.389L1.342,11.324a4.663,4.663,0,0,1,0-6.546,4.559,4.559,0,0,1,6.49,0c2.152,2.176,5.072,5.139,7.945,8.053l4.371-4.41a3.231,3.231,0,0,1,4.6,0l.58.586L29.7,4.6a3.222,3.222,0,0,1,4.6,0l.441.444L38.787.962a3.229,3.229,0,0,1,4.594,0c4.945,4.967,5.141,5.184,13.178,13.317A12.888,12.888,0,0,1,57.671,31l0,0L44.746,44.048l0,0a12.519,12.519,0,0,1-11.084,2.1Z" transform="translate(5.359 8.847)" fill="#ffbe9d"/>
      <path id="Union_122" data-name="Union 122" d="M0,22.743,22.531,0l7.281,7.35L7.281,30.093Z" transform="translate(45.547 34.753)" fill="#37d131"/>
    </g>
  </g>
</svg>
