<svg xmlns="http://www.w3.org/2000/svg" xmlns:xlink="http://www.w3.org/1999/xlink" width="1580" height="758" viewBox="0 0 1580 758">
  <defs>
    <clipPath id="clip-WhiteBG_OrderTime">
      <rect width="1580" height="758"/>
    </clipPath>
  </defs>
  <g id="WhiteBG_OrderTime" clip-path="url(#clip-WhiteBG_OrderTime)">
    <path id="Union_116" data-name="Union 116" d="M-10615.595-12324.057l-1265.965-29.418s-51.15-2.149-51.551-1.9c-67.867-2.023-118.278-64.962-112.428-142.237.007-.089.013-.181.02-.269v-410.246c-.007-.087-.013-.179-.02-.268-5.851-77.276,44.561-140.214,112.428-142.238.4.253,51.551-1.9,51.551-1.9l1265.965-29.419a125.835,125.835,0,0,1,40.656,5.512c58.109,17.771,103.711,76.071,108.757,146.058h.185v391.967h0v62.784h-.184c-5.043,69.985-50.645,128.288-108.754,146.058a126.071,126.071,0,0,1-36.946,5.566Q-10613.736-12324-10615.595-12324.057Z" transform="translate(12046 13082)" fill="#fff"/>
  </g>
</svg>
