<svg xmlns="http://www.w3.org/2000/svg" xmlns:xlink="http://www.w3.org/1999/xlink" width="1580" height="1274" viewBox="0 0 1580 1274">
  <defs>
    <clipPath id="clip-WhiteBG_HowItWorks">
      <rect width="1580" height="1274"/>
    </clipPath>
  </defs>
  <g id="WhiteBG_HowItWorks" clip-path="url(#clip-WhiteBG_HowItWorks)">
    <path id="Union_121" data-name="Union 121" d="M-10615.6-11824.056l-1265.965-29.45s-51.149-2.15-51.547-1.9c-67.869-2.025-118.282-65.034-112.431-142.393.006-.086.013-.175.02-.26v-925.887c-.007-.085-.014-.174-.02-.26-5.852-77.359,44.562-140.367,112.431-142.394.4.25,51.547-1.9,51.547-1.9l1265.965-29.451a125.618,125.618,0,0,1,40.657,5.515c58.112,17.79,103.71,76.159,108.756,146.221l.184,0v970.424l-.184,0c-5.046,70.062-50.647,128.427-108.756,146.217a125.938,125.938,0,0,1-36.939,5.573Q-10613.732-11824-10615.6-11824.056Z" transform="translate(12046.004 13098)" fill="#fff"/>
  </g>
</svg>
